<svg xmlns="http://www.w3.org/2000/svg" xmlns:xlink="http://www.w3.org/1999/xlink" viewBox="0 0 304 221.78"><defs><linearGradient id="Gradiente_sem_nome_67" x1="397.33" y1="-245.33" x2="397.83" y2="-245.83" gradientUnits="userSpaceOnUse"><stop offset="0" stop-color="#e00914"/><stop offset="0.21" stop-color="#e10e17"/><stop offset="0.47" stop-color="#e31e1e"/><stop offset="0.76" stop-color="#e6382b"/><stop offset="1" stop-color="#ea5338"/></linearGradient><linearGradient id="Gradiente_sem_nome_67-2" x1="195.12" y1="104.36" x2="251" y2="48.48" xlink:href="#Gradiente_sem_nome_67"/><linearGradient id="Gradiente_sem_nome_67-3" x1="82.37" y1="207.15" x2="110.09" y2="179.43" xlink:href="#Gradiente_sem_nome_67"/><linearGradient id="Gradiente_sem_nome_67-4" x1="100.23" y1="201.58" x2="121.67" y2="180.14" xlink:href="#Gradiente_sem_nome_67"/><linearGradient id="Gradiente_sem_nome_67-5" x1="118.69" y1="214.82" x2="146.58" y2="186.93" xlink:href="#Gradiente_sem_nome_67"/><linearGradient id="Gradiente_sem_nome_67-6" x1="141.41" y1="201.75" x2="163.19" y2="179.97" xlink:href="#Gradiente_sem_nome_67"/><linearGradient id="Gradiente_sem_nome_67-7" x1="161.58" y1="201.61" x2="179.15" y2="184.04" xlink:href="#Gradiente_sem_nome_67"/><linearGradient id="Gradiente_sem_nome_67-8" x1="183.51" y1="207.3" x2="205.24" y2="185.58" xlink:href="#Gradiente_sem_nome_67"/><linearGradient id="Gradiente_sem_nome_67-9" x1="201.09" y1="201.43" x2="223.09" y2="179.43" xlink:href="#Gradiente_sem_nome_67"/></defs><g id="Camada_2" data-name="Camada 2"><g id="Camada_1-2" data-name="Camada 1"><rect width="152" height="152" style="fill:url(#Gradiente_sem_nome_67)"/><rect x="152" width="152" height="152" style="fill:#f6f6f6"/><path d="M109.2,38.1h13.87L90.43,113.9l-14-30.7L63.21,113.9,28.93,38.1H44.26L63.73,81.8l6-13.5L56.15,38.1H71.48L90.94,81.8Z" style="fill:#f6f6f6"/><path d="M204.27,113.5v-75h24.06c13.89,0,23.86,5.84,23.86,19.83A16.22,16.22,0,0,1,246.85,71C253.6,75.65,257,82.09,257,89.34c0,15.3-12.79,24.16-26.58,24.16Zm23.91-47c7.61,0,8.52-3.86,8.52-7,0-5.78-4.16-7-8.52-7h-7.91v14Zm3,32c6.34,0,9.9-3.66,9.9-9.4,0-5.94-3.56-9.6-9.9-9.6H220.27v19Z" style="fill:url(#Gradiente_sem_nome_67-2)"/><path d="M102.59,171.93v37h-7v-1.79c-1.09,1.44-3.8,2.34-6.07,2.34-6.8,0-12.22-5.91-12.22-13.06s5.57-13.12,12.22-13.12a9.51,9.51,0,0,1,6.07,2.29V171.93ZM95.43,196.1a5.75,5.75,0,0,0-5.75-6.1,6.11,6.11,0,0,0,0,12.21C93,202.21,95.43,199.7,95.43,196.1Z" style="fill:url(#Gradiente_sem_nome_67-3)"/><path d="M106.63,175a4.18,4.18,0,1,1,4.1,4.05A4.15,4.15,0,0,1,106.63,175Zm8,34h-7v-25h7Z" style="fill:url(#Gradiente_sem_nome_67-4)"/><path d="M136.59,209.38v-2c-1.09,1.45-3.8,2.35-6.07,2.35-6.8,0-12.22-5.95-12.22-13.15s5.57-13.2,12.22-13.2a9.46,9.46,0,0,1,6.07,2.3v-1.75h7v25a12.69,12.69,0,0,1-23.32,7.1l5.67-4.15a5.69,5.69,0,0,0,4.93,2.85A5.49,5.49,0,0,0,136.59,209.38Zm.54-13.28a5.75,5.75,0,0,0-5.75-6.1,6.11,6.11,0,0,0,0,12.21C134.68,202.21,137.13,199.7,137.13,196.1Z" style="fill:url(#Gradiente_sem_nome_67-5)"/><path d="M148.33,175a4.18,4.18,0,1,1,4.1,4.05A4.15,4.15,0,0,1,148.33,175Zm7.26,34h-7v-25h7Z" style="fill:url(#Gradiente_sem_nome_67-6)"/><path d="M169.59,189.93V198c0,2.92,2.66,4.26,6,4.26v7c-7.58,0-13-4.47-13-11.05v-8.3h-4v-7h4v-3.3l7-5.15v8.45h6v7Z" style="fill:url(#Gradiente_sem_nome_67-7)"/><path d="M203.59,183.93v25h-7v-1.78c-1.09,1.44-3.8,2.33-6.07,2.33-6.8,0-12.22-5.9-12.22-13s5.57-13.07,12.22-13.07a9.56,9.56,0,0,1,6.07,2.27v-1.73Zm-6.71,12.17a5.75,5.75,0,0,0-5.75-6.1,6.11,6.11,0,0,0,0,12.21C194.43,202.21,196.88,199.7,196.88,196.1Z" style="fill:url(#Gradiente_sem_nome_67-8)"/><path d="M215.59,171.93v37h-7v-37Z" style="fill:url(#Gradiente_sem_nome_67-9)"/></g></g></svg>