<?xml version="1.0" encoding="utf-8"?>
<!-- Generator: Adobe Illustrator 24.1.2, SVG Export Plug-In . SVG Version: 6.00 Build 0)  -->
<svg version="1.1" id="Camada_1" xmlns="http://www.w3.org/2000/svg" xmlns:xlink="http://www.w3.org/1999/xlink" x="0px" y="0px"
	 viewBox="0 0 908.2 557.4" style="enable-background:new 0 0 908.2 557.4;" xml:space="preserve">
<style type="text/css">
	.st0{clip-path:url(#SVGID_2_);}
	.st1{fill:url(#SVGID_3_);}
	.st2{fill:#FFFFFF;}
	.st3{fill:#F2F2F2;}
	.st4{fill:#E4E7EC;}
	.st5{fill:#FDFDFE;}
	.st6{opacity:0.45;}
	.st7{clip-path:url(#SVGID_5_);}
	.st8{clip-path:url(#SVGID_7_);}
	.st9{clip-path:url(#SVGID_9_);}
	.st10{fill:#EBEFF6;}
	.st11{fill:#D3D3D3;}
	.st12{font-family:'Arial-BoldMT';}
	.st13{font-size:20px;}
</style>
<g transform="translate(-90)">
	<g transform="translate(156.515)">
		<g>
			<defs>
				<path id="SVGID_1_" d="M20.5,0C9.2,0,0,9.2,0,20.5c0,0,0,0,0,0v507.2h779V20.5c0-11.3-9.2-20.5-20.5-20.5c0,0,0,0,0,0H20.5z"/>
			</defs>
			<clipPath id="SVGID_2_">
				<use xlink:href="#SVGID_1_"  style="overflow:visible;"/>
			</clipPath>
			<g class="st0">
				
					<linearGradient id="SVGID_3_" gradientUnits="userSpaceOnUse" x1="131.2193" y1="534.7084" x2="131.2334" y2="534.7084" gradientTransform="matrix(297.1689 -725.1495 -852.1778 -349.2256 416854.7188 282656.75)">
					<stop  offset="0" style="stop-color:#323232"/>
					<stop  offset="1" style="stop-color:#1C1C1C"/>
				</linearGradient>
				<polygon class="st1" points="-185.1,451.8 112,-273.3 964.2,75.9 667,801 				"/>
			</g>
		</g>
	</g>
	<g transform="translate(0 0.002)">
		<path class="st2" d="M935.6,527.7h-779V20.5C156.5,9.2,165.7,0,177,0h738c11.3,0,20.5,9.2,20.5,20.5L935.6,527.7z"/>
		<rect x="174.5" y="32.4" class="st3" width="743" height="467.5"/>
		<path class="st4" d="M998.2,532.7v1.9c0,4.1-2.6,8.1-6.7,11.4c-8.1,6.8-21.6,11.4-29.9,11.4H126.9c-8.3,0-21.8-4.6-29.9-11.4
			c-4-3.3-6.7-7.3-6.7-11.4v-1.9H998.2z"/>
		<path class="st5" d="M997.8,531.1v3.5c0,4.2-2.6,8.1-6.7,11.4H96.7c-4-3.3-6.7-7.3-6.7-11.4v-3.5c0-1.9,1.6-3.5,3.5-3.5h900.9
			C996.3,527.7,997.8,529.2,997.8,531.1"/>
		<g transform="translate(686.157 527.663)" class="st6">
			<g>
				<defs>
					<rect id="SVGID_4_" x="-209.2" y="0" width="134.8" height="8.9"/>
				</defs>
				<clipPath id="SVGID_5_">
					<use xlink:href="#SVGID_4_"  style="overflow:visible;"/>
				</clipPath>
				<g transform="translate(-209.157)" class="st7">
					<path class="st4" d="M83.1,0H0c0.4,5,4.6,8.9,9.6,8.9h115.6c5,0,9.2-3.9,9.6-8.9H83.1z"/>
				</g>
			</g>
		</g>
		<g transform="translate(685.845 527.635)">
			<g>
				<defs>
					<rect id="SVGID_6_" x="0" y="0" width="135.5" height="9.2"/>
				</defs>
				<clipPath id="SVGID_7_">
					<use xlink:href="#SVGID_6_"  style="overflow:visible;"/>
				</clipPath>
				<g class="st8">
					<path class="st2" d="M125.5,9.2H9.9c-5.2,0-9.5-4-9.9-9.2L0.6,0C1,4.9,5.1,8.6,9.9,8.6h115.6c4.9,0,8.9-3.7,9.3-8.6l0.6,0.1
						C135.1,5.2,130.7,9.2,125.5,9.2"/>
				</g>
			</g>
		</g>
		<g transform="translate(156.513 -0.002)">
			<g>
				<defs>
					<rect id="SVGID_8_" x="0" width="779.1" height="527.7"/>
				</defs>
				<clipPath id="SVGID_9_">
					<use xlink:href="#SVGID_8_"  style="overflow:visible;"/>
				</clipPath>
				<g class="st9">
					<path class="st10" d="M758.6,1.8c10.3,0,18.7,8.4,18.7,18.7v505.4H1.8V20.5c0-10.3,8.4-18.7,18.7-18.7H758.6 M758.6,0h-738
						C9.2,0,0,9.2,0,20.5v507.2h779.1V20.5C779.1,9.2,769.9,0,758.6,0"/>
				</g>
			</g>
		</g>
		<path class="st2" d="M553.9,16.7c0,3-2.4,5.5-5.5,5.5c-3,0-5.5-2.4-5.5-5.5s2.4-5.5,5.5-5.5C551.5,11.2,553.9,13.6,553.9,16.7
			C553.9,16.6,553.9,16.6,553.9,16.7"/>
		<text transform="matrix(1 0 0 1 289.49 249.998)" class="st11 st12 st13">USE ESTE ASSET PARA SEU PORTFÓLIO ADICIONE, NESTE </text>
		<text transform="matrix(1 0 0 1 298.08 273.998)" class="st11 st12 st13">RETANGULO CINZA UM SITE DESENVOLVIDO POR VOCÊ</text>
	</g>
</g>
</svg>
